<svg width="20" height="23" viewBox="0 0 20 23" fill="none" xmlns="http://www.w3.org/2000/svg">
<path d="M1.91406 18.375H6.05246C6.12277 20.2835 7.68973 22.0514 10 22.0514C12.3002 22.0514 13.8772 20.3036 13.9576 18.375H18.0859C19.1306 18.375 19.7734 17.8025 19.7734 16.9386C19.7734 15.8639 18.7991 14.9498 17.885 14.0759C17.1719 13.3828 17.0011 11.9967 16.8705 10.5804C16.7299 6.79354 15.615 4.26229 13.0033 3.3181C12.6116 1.98216 11.4967 0.967651 10 0.967651C8.50335 0.967651 7.38839 1.98216 7.0067 3.3181C4.38505 4.26229 3.28013 6.79354 3.12946 10.5804C2.99888 11.9967 2.82812 13.3828 2.11496 14.0759C1.20089 14.9498 0.226562 15.8639 0.226562 16.9386C0.226562 17.8025 0.86942 18.375 1.91406 18.375ZM2.67746 16.5067V16.3862C2.93862 16.0949 3.52121 15.5625 4.01339 15C4.70647 14.2065 5.0279 12.74 5.12835 10.8315C5.24888 6.80359 6.49442 5.44756 8.10156 5.01564C8.35268 4.94533 8.48326 4.82479 8.50335 4.55359C8.55357 3.53908 9.12612 2.85604 10 2.85604C10.8839 2.85604 11.4464 3.53908 11.4967 4.55359C11.5167 4.82479 11.6574 4.94533 11.8984 5.01564C13.5156 5.44756 14.7511 6.80359 14.8717 10.8315C14.9821 12.74 15.3036 14.2065 15.9866 15C16.4788 15.5625 17.0413 16.0949 17.3025 16.3862V16.5067H2.67746ZM10 20.4342C8.86496 20.4342 8.05134 19.6206 7.98103 18.375H12.029C11.9688 19.6105 11.1451 20.4342 10 20.4342Z" fill="black"/>
</svg>
