<svg width="27" height="27" viewBox="0 0 27 27" fill="none" xmlns="http://www.w3.org/2000/svg">
<g clip-path="url(#clip0_106_1226)">
<path d="M3.4314 6.14926C3.4314 6.58997 3.8043 6.96287 4.22806 6.96287H6.88079L8.19444 15.9296C8.38089 17.2093 9.05891 17.9891 10.3556 17.9891H20.2207C20.619 17.9891 20.9835 17.6755 20.9835 17.2263C20.9835 16.7856 20.619 16.472 20.2207 16.472H10.5505C10.1437 16.472 9.88947 16.1923 9.83015 15.7601L9.69455 14.8787H20.2885C21.5852 14.8787 22.2717 14.0905 22.4581 12.8023L23.0938 8.5562C23.1107 8.44603 23.1277 8.30195 23.1277 8.20872C23.1277 7.70869 22.7802 7.36968 22.1954 7.36968H8.6182L8.4826 6.45436C8.37242 5.71702 8.07579 5.34412 7.13504 5.34412H4.22806C3.8043 5.34412 3.4314 5.71702 3.4314 6.14926ZM9.56742 20.7604C9.56742 21.5825 10.2285 22.2436 11.0506 22.2436C11.8727 22.2436 12.5337 21.5825 12.5337 20.7604C12.5337 19.9384 11.8727 19.2773 11.0506 19.2773C10.2285 19.2773 9.56742 19.9384 9.56742 20.7604ZM17.39 20.7604C17.39 21.5825 18.0595 22.2436 18.8816 22.2436C19.7037 22.2436 20.3563 21.5825 20.3563 20.7604C20.3563 19.9384 19.7037 19.2773 18.8816 19.2773C18.0595 19.2773 17.39 19.9384 17.39 20.7604Z" fill="#FF7728"/>
<rect x="17.3215" y="1.89282" width="9.71429" height="9.71428" rx="4.85714" fill="#FF7728" stroke="white" stroke-width="2"/>
<path d="M22.0867 8.67859V5.49645L22.2941 5.72305H21.325V5.30359H22.5641V8.67859H22.0867Z" fill="white"/>
</g>
<defs>
<clipPath id="clip0_106_1226">
<rect width="27" height="27" fill="white"/>
</clipPath>
</defs>
</svg>
