<svg width="21" height="18" viewBox="0 0 21 18" fill="none" xmlns="http://www.w3.org/2000/svg">
<path d="M7.35561 12.989H17.2207C17.619 12.989 17.9835 12.6754 17.9835 12.2262C17.9835 11.7855 17.619 11.4719 17.2207 11.4719H7.55054C7.14373 11.4719 6.88947 11.1923 6.83015 10.76L6.70302 9.87862H17.2885C18.5852 9.87862 19.2717 9.09043 19.4581 7.8022L20.0938 3.55614C20.1107 3.44597 20.1277 3.30189 20.1277 3.20866C20.1277 2.70863 19.7802 2.36962 19.1954 2.36962H5.60972L5.4826 1.4543C5.37242 0.716963 5.07579 0.344055 4.13504 0.344055H1.22806C0.804304 0.344055 0.431396 0.716963 0.431396 1.1492C0.431396 1.5899 0.804304 1.96281 1.22806 1.96281H3.88079L5.19444 10.9295C5.38089 12.2093 6.05891 12.989 7.35561 12.989ZM18.3649 3.88667L17.8309 7.64965C17.7631 8.08188 17.5343 8.35309 17.119 8.35309L6.48267 8.36156L5.83008 3.88667H18.3649ZM8.05057 17.2435C8.87266 17.2435 9.53373 16.5825 9.53373 15.7604C9.53373 14.9383 8.87266 14.2772 8.05057 14.2772C7.22848 14.2772 6.56742 14.9383 6.56742 15.7604C6.56742 16.5825 7.22848 17.2435 8.05057 17.2435ZM15.8816 17.2435C16.7037 17.2435 17.3563 16.5825 17.3563 15.7604C17.3563 14.9383 16.7037 14.2772 15.8816 14.2772C15.0595 14.2772 14.39 14.9383 14.39 15.7604C14.39 16.5825 15.0595 17.2435 15.8816 17.2435Z" fill="#515151"/>
</svg>
