<svg width="21" height="18" viewBox="0 0 21 18" fill="none" xmlns="http://www.w3.org/2000/svg">
<path d="M0.431396 1.14926C0.431396 1.58997 0.804304 1.96287 1.22806 1.96287H3.88079L5.19444 10.9296C5.38089 12.2094 6.05891 12.9891 7.35561 12.9891H17.2207C17.619 12.9891 17.9835 12.6755 17.9835 12.2263C17.9835 11.7856 17.619 11.472 17.2207 11.472H7.55054C7.14373 11.472 6.88947 11.1923 6.83015 10.7601L6.69455 9.87868H17.2885C18.5852 9.87868 19.2717 9.09049 19.4581 7.80226L20.0938 3.5562C20.1107 3.44603 20.1277 3.30195 20.1277 3.20872C20.1277 2.70869 19.7802 2.36968 19.1954 2.36968H5.6182L5.4826 1.45436C5.37242 0.717024 5.07579 0.344116 4.13504 0.344116H1.22806C0.804304 0.344116 0.431396 0.717024 0.431396 1.14926ZM6.56742 15.7604C6.56742 16.5825 7.22848 17.2436 8.05057 17.2436C8.87266 17.2436 9.53373 16.5825 9.53373 15.7604C9.53373 14.9384 8.87266 14.2773 8.05057 14.2773C7.22848 14.2773 6.56742 14.9384 6.56742 15.7604ZM14.39 15.7604C14.39 16.5825 15.0595 17.2436 15.8816 17.2436C16.7037 17.2436 17.3563 16.5825 17.3563 15.7604C17.3563 14.9384 16.7037 14.2773 15.8816 14.2773C15.0595 14.2773 14.39 14.9384 14.39 15.7604Z" fill="#FF7728"/>
</svg>
