<svg width="11" height="19" viewBox="0 0 11 19" fill="none" xmlns="http://www.w3.org/2000/svg">
<path d="M0.541504 9.60491C0.541504 9.95647 0.672084 10.2578 0.953334 10.519L8.76807 18.173C8.98905 18.394 9.2703 18.5145 9.60177 18.5145C10.2647 18.5145 10.7971 17.9922 10.7971 17.3192C10.7971 16.9877 10.6565 16.6964 10.4355 16.4654L3.39418 9.60491L10.4355 2.74442C10.6565 2.51339 10.7971 2.21205 10.7971 1.89062C10.7971 1.21763 10.2647 0.695312 9.60177 0.695312C9.2703 0.695312 8.98905 0.815848 8.76807 1.03683L0.953334 8.6808C0.672084 8.95201 0.541504 9.25335 0.541504 9.60491Z" fill="#FF7728"/>
</svg>
