<svg width="20" height="21" viewBox="0 0 20 21" fill="none" xmlns="http://www.w3.org/2000/svg">
<path d="M9.99044 20.3666C15.3298 20.3666 19.7369 15.9595 19.7369 10.6296C19.7369 5.29966 15.3204 0.892578 9.98103 0.892578C4.65109 0.892578 0.253418 5.29966 0.253418 10.6296C0.253418 15.9595 4.66051 20.3666 9.99044 20.3666ZM9.99044 18.4268C5.66811 18.4268 2.21212 14.9519 2.21212 10.6296C2.21212 6.30727 5.66811 2.84187 9.98103 2.84187C14.3034 2.84187 17.7782 6.30727 17.7876 10.6296C17.797 14.9519 14.3128 18.4268 9.99044 18.4268ZM5.24435 11.8161H9.98103C10.4142 11.8161 10.7438 11.4865 10.7438 11.0628V4.90416C10.7438 4.4804 10.4142 4.15081 9.98103 4.15081C9.56669 4.15081 9.2371 4.4804 9.2371 4.90416V10.3094H5.24435C4.82059 10.3094 4.491 10.639 4.491 11.0628C4.491 11.4865 4.82059 11.8161 5.24435 11.8161Z" fill="#FF7728"/>
</svg>
