<svg width="23" height="17" viewBox="0 0 23 17" fill="none" xmlns="http://www.w3.org/2000/svg">
<path d="M3.09814 16.3194H19.1915C21.235 16.3194 22.2897 15.2553 22.2897 13.2401V3.06989C22.2897 1.05469 21.235 0 19.1915 0H3.09814C1.0641 0 0 1.05469 0 3.06989V13.2401C0 15.2647 1.0641 16.3194 3.09814 16.3194ZM1.87395 3.2394C1.87395 2.33538 2.35421 1.88337 3.22056 1.88337H19.0691C19.9355 1.88337 20.4157 2.33538 20.4157 3.2394V3.91741H1.87395V3.2394ZM3.22056 14.436C2.35421 14.436 1.87395 13.984 1.87395 13.08V6.13037H20.4157V13.08C20.4157 13.984 19.9355 14.436 19.0691 14.436H3.22056ZM4.50126 12.7316H6.80838C7.36398 12.7316 7.74065 12.3643 7.74065 11.837V10.0855C7.74065 9.55811 7.36398 9.19085 6.80838 9.19085H4.50126C3.95508 9.19085 3.5784 9.55811 3.5784 10.0855V11.837C3.5784 12.3643 3.95508 12.7316 4.50126 12.7316Z" fill="#FF7728"/>
</svg>
