<svg width="22" height="21" viewBox="0 0 22 21" fill="none" xmlns="http://www.w3.org/2000/svg">
<path d="M10.9902 20.9911C16.6855 20.9911 21.3864 16.2902 21.3864 10.6049C21.3864 4.91964 16.6754 0.21875 10.9801 0.21875C5.29485 0.21875 0.604004 4.91964 0.604004 10.6049C0.604004 16.2902 5.3049 20.9911 10.9902 20.9911ZM10.9902 18.9219C6.37967 18.9219 2.69329 15.2154 2.69329 10.6049C2.69329 5.99442 6.37967 2.29799 10.9801 2.29799C15.5906 2.29799 19.2971 5.99442 19.3071 10.6049C19.3172 15.2154 15.6007 18.9219 10.9902 18.9219ZM7.69552 14.8237C7.95668 14.8237 8.18771 14.7333 8.35847 14.5525L10.9902 11.9208L13.6219 14.5525C13.7926 14.7232 14.0136 14.8237 14.2848 14.8237C14.7971 14.8237 15.1989 14.4219 15.1989 13.9096C15.1989 13.6585 15.0984 13.4375 14.9277 13.2667L12.2859 10.625L14.9277 7.97321C15.1185 7.78237 15.2089 7.58147 15.2089 7.3404C15.2089 6.82813 14.8071 6.42634 14.2949 6.42634C14.0437 6.42634 13.8328 6.5067 13.6419 6.69755L10.9902 9.33929L8.33838 6.70759C8.16762 6.52679 7.95668 6.43638 7.69552 6.43638C7.18324 6.43638 6.78146 6.82813 6.78146 7.3404C6.78146 7.59152 6.88191 7.8125 7.06271 7.98326L9.69441 10.625L7.06271 13.2768C6.88191 13.4375 6.78146 13.6685 6.78146 13.9096C6.78146 14.4219 7.18324 14.8237 7.69552 14.8237Z" fill="white"/>
</svg>
