<svg width="14" height="24" viewBox="0 0 14 24" fill="none" xmlns="http://www.w3.org/2000/svg">
<path d="M3.69454 23.0446C4.52323 23.0446 5.03174 22.5737 5.02232 21.7827L4.83398 11.1134C4.83398 10.7273 4.96582 10.5013 5.27658 10.3601C6.55727 9.78564 7.13169 9.18297 7.04694 7.44085L6.78327 1.66832C6.75502 1.22573 6.50077 0.97147 6.09584 0.97147C5.69092 0.97147 5.4555 1.24456 5.4555 1.68715L5.53083 7.29018C5.53083 7.6386 5.31424 7.84577 5.00349 7.84577C4.68331 7.84577 4.46673 7.64802 4.45731 7.31843L4.36314 1.50823C4.35372 1.08447 4.09947 0.820801 3.69454 0.820801C3.28962 0.820801 3.03536 1.08447 3.02595 1.50823L2.93178 7.31843C2.93178 7.6386 2.70577 7.84577 2.3856 7.84577C2.07485 7.84577 1.85826 7.6386 1.86767 7.29018L1.93359 1.68715C1.93359 1.24456 1.69817 0.97147 1.29325 0.97147C0.888322 0.97147 0.634067 1.23514 0.605816 1.66832L0.342144 7.44085C0.257393 9.18297 0.831821 9.78564 2.11251 10.3601C2.42327 10.5013 2.5551 10.7273 2.5551 11.1134L2.36677 21.7827C2.34793 22.5737 2.86586 23.0446 3.69454 23.0446ZM11.1809 14.7201L10.9926 21.745C10.9644 22.5737 11.4917 23.0446 12.311 23.0446C13.1491 23.0446 13.6576 22.6114 13.6576 21.8298V1.55532C13.6576 1.06564 13.3374 0.820801 12.9607 0.820801C12.6029 0.820801 12.3486 1.01855 12.0379 1.46115C10.5029 3.61761 9.44824 7.76102 9.44824 11.5278V12.0269C9.44824 12.7049 9.68366 13.1663 10.2016 13.5241L10.7101 13.8631C11.0491 14.0986 11.1904 14.3528 11.1809 14.7201Z" fill="#FF7728"/>
</svg>
