<svg width="19" height="17" viewBox="0 0 19 17" fill="none" xmlns="http://www.w3.org/2000/svg">
<path d="M0.914551 5.78514C0.914551 9.40403 3.95714 12.9806 8.68628 16.0316C8.94901 16.2011 9.27107 16.3706 9.49142 16.3706C9.71177 16.3706 10.0338 16.2011 10.2966 16.0316C15.0342 12.9806 18.0683 9.40403 18.0683 5.78514C18.0683 2.6578 15.9071 0.488159 13.1357 0.488159C11.517 0.488159 10.2542 1.2255 9.49142 2.34422C8.7456 1.23397 7.47433 0.488159 5.85557 0.488159C3.07572 0.488159 0.914551 2.6578 0.914551 5.78514ZM2.66044 5.77666C2.66044 3.64092 4.06731 2.19167 5.95728 2.19167C7.48281 2.19167 8.3388 3.11546 8.87273 3.9206C9.11004 4.26808 9.27107 4.37826 9.49142 4.37826C9.72025 4.37826 9.86433 4.25961 10.1101 3.9206C10.6864 3.13241 11.5085 2.19167 13.0256 2.19167C14.924 2.19167 16.3309 3.64092 16.3309 5.77666C16.3309 8.75992 13.229 12.0652 9.65245 14.4383C9.57617 14.4891 9.52532 14.523 9.49142 14.523C9.45752 14.523 9.40667 14.4891 9.33887 14.4383C5.76235 12.0652 2.66044 8.75992 2.66044 5.77666Z" fill="#515151"/>
</svg>
