<svg width="17" height="17" viewBox="0 0 17 17" fill="none" xmlns="http://www.w3.org/2000/svg">
<path d="M1.53139 14.1032H2.51828C2.74428 14.1032 2.83468 14.058 3.00042 13.9299L3.50516 13.5457C3.7839 13.8244 4.19824 13.8847 4.61258 13.7039L7.10617 12.6643C7.2945 12.5889 7.39244 12.5136 7.51297 12.3931L14.7903 5.16846C15.5135 4.44524 15.5135 3.57889 14.7828 2.84061L13.148 1.19831C12.4173 0.467562 11.5509 0.460029 10.8277 1.18324L3.55036 8.40032C3.42229 8.52839 3.35449 8.61879 3.27162 8.81466L2.21694 11.3007C2.04367 11.7 2.08887 12.0917 2.36761 12.4006L1.28278 13.5231C1.04925 13.7717 1.16225 14.1032 1.53139 14.1032ZM11.6639 2.17766C11.8598 1.98933 12.0933 1.98179 12.2741 2.17013L13.811 3.71449C13.9993 3.90283 13.9918 4.12883 13.7884 4.32471L13.2987 4.81438L11.1667 2.67487L11.6639 2.17766ZM4.88379 8.92013L10.3531 3.48849L12.4775 5.628L7.01576 11.0596L4.88379 8.92013ZM4.46191 12.3705C4.31878 12.4232 4.22084 12.4232 4.09277 12.2951L3.61816 11.8281C3.49763 11.7075 3.49763 11.5945 3.55036 11.4664L4.22838 9.89195L6.03641 11.715L4.46191 12.3705ZM1.27525 16.7775H15.732C16.0936 16.7775 16.3874 16.4687 16.3874 16.1071C16.3874 15.7455 16.0936 15.4441 15.732 15.4441H1.27525C0.90611 15.4441 0.612305 15.7455 0.612305 16.1071C0.612305 16.4687 0.913644 16.7775 1.27525 16.7775Z" fill="black"/>
</svg>
