<svg width="21" height="19" viewBox="0 0 21 19" fill="none" xmlns="http://www.w3.org/2000/svg">
<path d="M0.134766 8.74291C0.134766 9.18362 0.473772 9.565 1.01618 9.565C1.27891 9.565 1.51622 9.42093 1.7281 9.25142L10.1355 2.19161C10.3728 1.9882 10.644 1.9882 10.8813 2.19161L19.2802 9.25142C19.4836 9.42093 19.7209 9.565 19.9836 9.565C20.4836 9.565 20.865 9.25142 20.865 8.75986C20.865 8.47171 20.7548 8.24288 20.5345 8.05642L18.153 6.05628V2.53061C18.153 2.14923 17.9072 1.91193 17.5258 1.91193H16.3562C15.9833 1.91193 15.7291 2.14923 15.7291 2.53061V4.01377L11.7118 0.640651C10.9745 0.0219639 10.0422 0.0219639 9.3049 0.640651L0.473772 8.05642C0.244943 8.24288 0.134766 8.49713 0.134766 8.74291ZM2.88919 16.3621C2.88919 17.5825 3.65196 18.3199 4.91476 18.3199H16.0935C17.3478 18.3199 18.1191 17.5825 18.1191 16.3621V9.92096L11.0254 3.97987C10.6948 3.69171 10.2965 3.70019 9.97443 3.97987L2.88919 9.92096V16.3621ZM12.7289 16.7265H8.2794V11.3024C8.2794 10.9041 8.54213 10.6498 8.94046 10.6498H12.0763C12.4746 10.6498 12.7289 10.9041 12.7289 11.3024V16.7265Z" fill="#FF7728"/>
</svg>
