<svg width="21" height="19" viewBox="0 0 21 19" fill="none" xmlns="http://www.w3.org/2000/svg">
<path d="M0.134766 8.74291C0.134766 9.18362 0.473772 9.565 1.01618 9.565C1.27891 9.565 1.51622 9.42093 1.7281 9.25142L2.69427 8.43781V16.3197C2.69427 17.574 3.44856 18.3199 4.74526 18.3199H16.2122C17.5004 18.3199 18.2631 17.574 18.2631 16.3197V8.39543L19.2802 9.25142C19.4836 9.42093 19.7209 9.565 19.9836 9.565C20.4836 9.565 20.865 9.25142 20.865 8.75986C20.865 8.47171 20.7548 8.24288 20.5345 8.05642L18.2631 6.14104V2.53061C18.2631 2.14923 18.0174 1.91193 17.636 1.91193H16.4664C16.0935 1.91193 15.8393 2.14923 15.8393 2.53061V4.10699L11.7118 0.640651C10.9745 0.0219639 10.0422 0.0219639 9.3049 0.640651L0.473772 8.05642C0.244943 8.24288 0.134766 8.49713 0.134766 8.74291ZM12.9407 11.0821C12.9407 10.6837 12.6865 10.4295 12.2882 10.4295H8.72859C8.33025 10.4295 8.06752 10.6837 8.06752 11.0821V16.6333H5.19444C4.66898 16.6333 4.38082 16.3367 4.38082 15.8027V7.02245L10.1355 2.19161C10.3728 1.9882 10.644 1.9882 10.8813 2.19161L16.5681 6.9716V15.8027C16.5681 16.3367 16.28 16.6333 15.7545 16.6333H12.9407V11.0821Z" fill="#515151"/>
</svg>
