<svg width="22" height="21" viewBox="0 0 22 21" fill="none" xmlns="http://www.w3.org/2000/svg">
<path d="M10.9999 20.9811C16.6751 20.9811 21.376 16.2902 21.376 10.6049C21.376 4.92971 16.6751 0.228821 10.9899 0.228821C5.31463 0.228821 0.623779 4.92971 0.623779 10.6049C0.623779 16.2902 5.32467 20.9811 10.9999 20.9811ZM9.88494 15.567C9.50324 15.567 9.19186 15.3962 8.91061 15.0346L6.44967 12.0413C6.26887 11.8203 6.17847 11.5793 6.17847 11.3282C6.17847 10.8159 6.58025 10.394 7.10257 10.394C7.41396 10.394 7.65503 10.5145 7.90615 10.836L9.84476 13.2969L14.0032 6.64735C14.2142 6.29579 14.4954 6.12503 14.8169 6.12503C15.3191 6.12503 15.7711 6.47659 15.7711 6.99891C15.7711 7.22994 15.6506 7.48105 15.5099 7.70204L10.809 15.0346C10.578 15.3761 10.2566 15.567 9.88494 15.567Z" fill="white"/>
</svg>
