<svg width="18" height="18" viewBox="0 0 18 18" fill="none" xmlns="http://www.w3.org/2000/svg">
<path d="M1.5279 9.79602H7.65513V15.9233C7.65513 16.546 8.16741 17.0683 8.80022 17.0683C9.43303 17.0683 9.94531 16.546 9.94531 15.9233V9.79602H16.0725C16.6953 9.79602 17.2176 9.28374 17.2176 8.65093C17.2176 8.01812 16.6953 7.50584 16.0725 7.50584H9.94531V1.37861C9.94531 0.755842 9.43303 0.233521 8.80022 0.233521C8.16741 0.233521 7.65513 0.755842 7.65513 1.37861V7.50584H1.5279C0.905134 7.50584 0.382812 8.01812 0.382812 8.65093C0.382812 9.28374 0.905134 9.79602 1.5279 9.79602Z" fill="#FF7728"/>
</svg>
