<svg width="146" height="160" viewBox="0 0 146 160" fill="none" xmlns="http://www.w3.org/2000/svg">
<path d="M148.717 45.9124L152.838 50.5679C153.075 50.2685 153.333 49.9898 153.559 49.6801C156.805 45.4376 164.553 44.3434 168.932 48.9369C172.353 52.5395 173.744 56.7717 172.415 61.7058C172.26 62.2839 172.095 62.862 171.889 63.5845C172.228 63.6544 172.574 63.6856 172.92 63.6774C178.123 63.006 183.398 64.1585 187.85 66.9393C189.487 67.8789 190.881 69.1907 191.919 70.769C192.778 72.0627 193.602 73.3668 194.392 74.6812C196.284 77.7801 198.62 80.5834 201.327 83.0011C202.38 84.0361 203.573 84.9186 204.871 85.6231C205.438 85.9018 206.097 86.2321 206.066 87.223C205.762 87.5591 205.357 87.7857 204.912 87.8678C204.467 87.9499 204.007 87.8829 203.604 87.6772C200.935 86.4282 198.132 86.4695 195.361 86.7379C192.214 87.0254 189.105 87.6447 186.088 88.5856C184.171 89.174 182.203 89.6179 180.256 90.1133L178.02 90.7017C178.185 91.1456 178.308 91.5172 178.463 91.8682C179.04 93.1585 179.71 94.4075 180.184 95.7288C180.652 97.0707 180.997 98.4528 181.214 99.8578C181.428 101.224 181.355 102.62 181 103.957C180.645 105.293 180.016 106.541 179.153 107.62C178.556 108.427 178.028 109.283 177.577 110.18C174.95 115.614 171.977 120.872 168.675 125.922C165.681 130.305 162.35 134.447 158.711 138.309C154.117 143.229 148.533 147.117 142.329 149.715C134.791 152.766 126.759 154.407 118.631 154.557C114.343 154.688 110.055 154.342 105.844 153.524C104.072 153.194 102.279 152.895 100.496 152.606C99.909 152.503 99.3114 152.472 98.6417 152.389C98.4356 152.771 98.2707 153.132 98.0647 153.421C96.4367 155.919 94.2627 157.344 91.151 156.921C88.5648 156.559 85.9992 156.291 83.3924 155.888C79.168 155.166 74.9642 154.336 70.7809 153.401C67.3867 152.607 64.0903 151.44 60.9514 149.922C60.0447 149.488 59.1483 149.024 58.2313 148.621C55.251 147.228 52.4967 145.395 50.0606 143.181C49.5152 142.791 49.0523 142.296 48.6986 141.726C48.3449 141.155 48.1074 140.52 47.9999 139.857C47.9277 139.145 47.4229 138.825 46.8665 138.588C43.4443 136.892 40.1243 134.996 36.9236 132.91C31.4726 129.23 26.4841 124.904 22.0659 120.028C20.1835 117.931 18.4937 115.668 17.0172 113.267C12.8162 106.702 9.36026 99.687 6.71364 92.3533C6.29119 91.1456 5.88935 89.9379 5.47721 88.7301C3.00245 81.0797 2.37044 72.9511 3.63288 65.009C3.96176 62.3374 4.59438 59.7122 5.51843 57.1846C6.34958 54.9962 7.17043 52.7975 7.98097 50.5885C8.23916 49.9171 8.44583 49.2269 8.59918 48.524C9.14279 45.8754 10.4172 43.4328 12.2775 41.4737C14.3644 39.1971 16.7989 37.2669 19.49 35.7551C25.6625 32.3284 32.4343 30.1207 39.4376 29.2519C45.6182 28.4627 51.8615 28.2864 58.0767 28.7255C62.8286 28.9704 67.5625 29.4908 72.2543 30.2842C76.7412 31.0829 81.179 32.1375 85.5459 33.4428C89.4263 34.4713 93.2167 35.8142 96.8798 37.4583C97.2404 37.6323 97.6265 37.7473 98.0235 37.7989C103.227 38.4562 108.35 39.6426 113.314 41.3396C113.497 41.3845 113.683 41.4156 113.87 41.4325C115.343 40.5411 116.983 39.9629 118.688 39.7338C120.393 39.5048 122.127 39.6297 123.782 40.1009C125.475 40.5688 127.053 41.3838 128.415 42.4944C129.777 43.6049 130.894 44.9868 131.695 46.5524L136.796 43.7344L135.765 42.795C131.479 39.0376 129.449 34.3822 130.273 28.6429C130.552 26.6506 130.984 24.679 131.366 22.7074C131.753 20.5928 131.946 18.4471 131.943 16.2972C132.07 12.8101 131.898 9.31857 131.427 5.86114C131.252 4.82889 131.561 4.13728 132.19 4.02373C133.004 3.87922 133.385 4.41599 133.725 5.05598C134.168 5.88178 134.642 6.69726 135.126 7.50241C136.171 9.30618 137.476 10.9447 139.001 12.3643C141.061 14.2224 143.04 16.101 145.183 17.8559C147.454 19.7453 149.418 21.9776 151.004 24.4726C152.687 27.1593 153.616 30.251 153.693 33.4222C153.879 37.6854 152.292 41.2776 149.83 44.5911L148.717 45.9124ZM172.559 112.472C172.333 112.498 172.11 112.539 171.889 112.596C168.472 113.801 164.896 114.497 161.277 114.66C150.909 115.323 140.5 114.761 130.263 112.988C125.039 112.131 119.815 111.347 114.592 110.459C110.831 109.819 107.07 109.127 103.34 108.333C99.0126 107.414 94.7057 106.402 90.4194 105.349C84.7328 104.066 79.128 102.442 73.635 100.487C68.4833 98.5365 63.1975 96.6578 58.0149 94.6449C54.9238 93.4372 51.8328 92.1572 48.7417 90.6708C41.7913 87.1986 35.1399 83.1556 28.8559 78.5831C23.5901 74.885 18.8426 70.4968 14.7401 65.5355C12.4776 62.8793 10.6706 59.8655 9.39255 56.6168C9.23965 56.3354 9.06024 56.0692 8.85677 55.822C8.72111 56.1219 8.60075 56.4286 8.49615 56.7407C7.6608 59.7861 7.06481 62.8923 6.71364 66.031C5.89818 74.2065 6.95536 82.4606 9.80469 90.1649C12.6364 97.7796 16.3138 105.051 20.7676 111.842C22.7395 114.876 25.0829 117.65 27.7431 120.1C29.7111 121.917 31.6997 123.713 33.7707 125.416C39.2843 129.923 45.4741 133.529 52.111 136.1C57.9118 138.381 63.8879 140.167 69.8021 142.128C71.0216 142.491 72.2599 142.787 73.5114 143.016C74.9539 143.326 76.417 143.532 77.8389 143.873C82.1457 144.905 86.4114 146.072 90.7492 146.97C95.9937 148.002 101.29 148.879 106.575 149.757C108.554 150.087 110.553 150.304 112.562 150.448C116.241 150.582 119.925 150.458 123.586 150.077C130.948 149.462 138.127 147.451 144.74 144.152C146.815 143.199 148.761 141.985 150.53 140.539C152.461 138.983 154.308 137.325 156.063 135.574C162.616 128.781 167.768 120.936 172.549 112.864C172.59 112.792 172.559 112.709 172.559 112.472ZM111.119 43.6311C107.616 42.3924 104.381 40.7099 100.671 40.6479C100.4 40.6257 100.135 40.5558 99.8884 40.4415C97.8064 39.6981 95.6563 39.1621 93.4693 38.8415C93.1602 38.7899 92.6862 38.666 92.6038 38.4493C92.2741 37.6028 91.5734 37.5099 90.8419 37.3138C84.5286 35.4957 78.0977 34.1161 71.5949 33.1848C63.1645 32.0106 54.6333 31.7373 46.1452 32.3693C41.0592 32.6895 36.0297 33.6182 31.1639 35.1357C27.3251 36.354 23.6555 38.0535 20.2422 40.1938C18.1918 41.4772 16.3413 43.0563 14.7504 44.8802C13.8898 45.8277 13.2377 46.946 12.8366 48.1624C12.4354 49.3788 12.2941 50.6661 12.4218 51.9408C12.5876 53.5642 13.0338 55.1465 13.7406 56.6168C14.7753 58.7314 16.0698 60.708 17.5942 62.5007C20.6851 66.217 24.1711 69.5848 27.9904 72.5444C32.3494 75.8904 36.9161 78.9555 41.6632 81.7211C47.1094 85.0266 52.8447 87.8287 58.7979 90.0927C61.8066 91.2178 64.8049 92.4049 67.8032 93.5611C73.3324 95.8045 79.0094 97.6635 84.7937 99.1249C90.6461 100.446 96.4058 101.84 102.238 103.068C107.224 104.1 112.232 105.009 117.26 105.824C122.886 106.733 128.532 107.486 134.168 108.281C141.732 109.363 149.374 109.801 157.011 109.592C159.959 109.547 162.898 109.264 165.8 108.745C168.051 108.364 170.217 107.588 172.199 106.454C172.877 106.04 173.516 105.563 174.105 105.029C174.773 104.461 175.283 103.728 175.585 102.903C175.887 102.078 175.969 101.189 175.825 100.322C175.735 99.5246 175.559 98.739 175.3 97.9791C174.661 96.2759 173.919 94.6243 173.239 92.9417C172.998 92.2905 172.597 91.7107 172.073 91.256C171.549 90.8013 170.919 90.4864 170.241 90.3404C168.573 89.9246 167.01 89.1668 165.65 88.115C164.29 87.0632 163.162 85.7402 162.338 84.2295C162.194 83.9611 161.988 83.7134 161.761 83.3831C161.067 83.8512 160.457 84.4342 159.958 85.1069C162.163 87.1714 162.946 89.7521 163.441 92.4875C163.571 93.3499 163.536 94.2292 163.337 95.0785C162.997 96.6372 162.451 98.1236 162.75 99.7958C162.817 100.227 162.757 100.668 162.578 101.066C162.398 101.464 162.107 101.801 161.74 102.036C161.39 102.263 160.762 102.036 160.813 101.644C160.91 100.636 160.706 99.6231 160.226 98.7326C159.94 98.0443 159.903 97.2773 160.123 96.5649C160.288 95.9146 160.504 95.2746 160.607 94.6139C160.757 93.8914 160.806 93.1513 160.751 92.4153C160.52 90.817 160 89.2743 159.216 87.863C158.954 87.403 158.604 86.9995 158.186 86.6759C158.056 86.5779 157.908 86.5065 157.751 86.4658C157.593 86.425 157.43 86.4158 157.269 86.4385C156.043 86.7172 154.847 87.0682 153.611 87.3985C155.084 90.0514 155.023 91.1559 153.425 91.7753C153.364 91.672 153.219 91.5482 153.24 91.4656C153.333 91.0028 153.303 90.5237 153.153 90.0762C153.003 89.6287 152.738 89.2286 152.385 88.9159C151.856 88.3821 151.498 87.7031 151.354 86.965C150.947 85.4808 149.969 84.2189 148.634 83.4553C147.724 82.8851 146.694 82.5319 145.626 82.4231C143.759 82.2147 141.872 82.2703 140.021 82.5882C138.287 82.8788 136.508 82.7328 134.844 82.1634C133.18 81.594 131.684 80.6191 130.49 79.3263C129.971 78.8016 129.424 78.3054 128.852 77.8399C127.88 77.0086 126.737 76.4042 125.504 76.0703C124.27 75.7364 122.979 75.6815 121.722 75.9096C121.062 76.0231 120.392 76.1057 119.733 76.2089C117.328 76.547 114.877 76.2333 112.634 75.3006C111.784 74.9119 110.988 74.4158 110.264 73.8244C109.677 73.3702 109.563 72.7922 109.873 72.4515C110.182 72.1109 110.759 72.2657 111.191 72.4515C111.624 72.6374 112.314 72.8954 112.881 73.0812C113.179 73.1507 113.482 73.1888 113.788 73.1948C113.613 72.4206 113.468 71.7909 113.314 71.1303C112.873 69.7125 112.774 68.2105 113.022 66.7467C113.271 65.283 113.862 63.8988 114.746 62.7071C114.909 62.4319 115.038 62.1371 115.127 61.8297C114.653 61.582 114.313 61.3652 113.953 61.2104C112.016 60.3921 110.464 58.8634 109.615 56.9368C109.086 55.8526 108.688 54.7091 108.43 53.5304C108.36 53.1051 108.198 52.7001 107.956 52.3437C107.714 51.9872 107.398 51.6877 107.029 51.4659C106.637 51.2079 106.235 50.9704 105.834 50.733L102.67 48.9885C100.134 47.4772 97.4928 46.1491 94.7675 45.0144C91.9546 43.8623 88.8239 43.7526 85.9374 44.7047C84.8452 45.0556 83.7634 45.3963 82.6918 45.7369C81.7914 46.1163 80.8018 46.2313 79.8386 46.0686C78.8754 45.906 77.9781 45.4723 77.2515 44.8182C76.2257 43.9463 75.03 43.2978 73.7404 42.9139C72.4508 42.53 71.0955 42.4192 69.7609 42.5886C68.102 42.7434 66.4432 42.9911 64.7843 43.2286C63.1254 43.466 61.9817 43.146 61.2296 41.6389C61.0123 41.2209 60.6667 40.8839 60.2437 40.6776C59.8208 40.4713 59.3428 40.4066 58.8804 40.4931C56.4578 40.5441 54.0803 41.159 51.9358 42.2892C50.4088 43.1697 48.6129 43.4598 46.8871 43.1047C44.6512 42.6712 42.405 42.2789 40.1898 41.7731C37.8855 41.2373 35.4663 41.5334 33.3585 42.6092C30.1885 44.2482 27.2215 46.2542 24.5181 48.5859C24.7095 48.8636 24.8121 49.193 24.8121 49.5304C24.8121 49.8679 24.7095 50.1973 24.5181 50.475C23.1065 53.2311 22.5501 56.0285 24.3224 58.8878C24.6403 59.4752 24.886 60.0991 25.0539 60.7458C25.0598 60.8393 25.0422 60.9327 25.0026 61.0175C24.9629 61.1023 24.9026 61.1757 24.8272 61.231C24.7446 61.2744 24.6527 61.2971 24.5593 61.2971C24.466 61.2971 24.3741 61.2744 24.2914 61.231C23.7041 60.5084 23.1684 59.7446 22.6017 59.0013C21.248 57.213 20.6587 54.9592 20.9634 52.7356C21.1592 50.8259 21.7877 49.2156 23.7763 48.4105C23.2302 47.2956 23.9617 46.5627 24.549 45.8505C26.7239 43.1941 29.4484 41.0422 32.5343 39.5434C35.2634 38.166 38.4233 37.9176 41.3335 38.8518C43.1263 39.4196 44.95 39.8841 46.7222 40.4931C48.8795 41.2646 51.2269 41.3225 53.4195 40.6583C55.1675 40.1992 56.9435 39.8544 58.7361 39.626C59.3281 39.4701 59.9552 39.5188 60.5161 39.7642C61.077 40.0096 61.5389 40.4373 61.8272 40.9783C61.9453 41.2415 62.1154 41.4781 62.3272 41.6737C62.5391 41.8693 62.7883 42.0199 63.0598 42.1164C63.3313 42.2129 63.6196 42.2532 63.9071 42.235C64.1946 42.2168 64.4755 42.1404 64.7328 42.0105C65.2362 41.8293 65.7486 41.6742 66.268 41.546C67.5765 41.2673 68.8748 40.9267 70.2039 40.7718C71.6036 40.5808 73.0279 40.693 74.3806 41.1008C75.7333 41.5086 76.9829 42.2025 78.0449 43.1357L78.9619 43.9202C79.3874 44.3054 79.9063 44.572 80.4668 44.6934C81.0273 44.8147 81.6098 44.7866 82.156 44.6118C83.2482 44.2918 84.3507 44.0028 85.4325 43.6724C88.7196 42.613 92.2703 42.7187 95.4888 43.9718C97.9204 44.9215 100.331 45.9124 102.701 46.924C104.484 47.6776 106.246 48.4827 108.1 49.3085C108.482 48.4208 108.832 47.4195 109.326 46.4802C109.821 45.5408 110.47 44.6427 111.119 43.6311ZM176.165 77.9328C176.228 80.0108 176.574 82.0705 177.196 84.054C177.35 84.4979 177.474 84.9418 177.587 85.396C177.584 85.4592 177.567 85.5209 177.537 85.5764C177.507 85.6319 177.464 85.6796 177.412 85.716C177.319 85.7882 177.113 85.8398 177.051 85.7779C176.647 85.5431 176.297 85.2267 176.021 84.8489C175.559 84.036 175.189 83.1738 174.919 82.2786C174.445 80.5341 174.084 78.7689 173.641 76.8799C172.611 76.5083 171.498 76.1367 170.406 75.6515C169.238 75.1447 168.099 74.5727 166.995 73.938C165.965 73.3393 165.058 72.6064 163.904 71.8012C164.148 73.3726 164.279 74.9595 164.296 76.5496C164.094 78.195 163.788 79.8258 163.379 81.4321C164.917 84.0442 167.199 86.1363 169.932 87.4398C172.313 88.5299 174.92 89.0359 177.536 88.9159C180.484 88.807 183.406 88.3213 186.232 87.4708C190.269 86.2533 194.445 85.5595 198.658 85.4063C198.979 85.3389 199.288 85.2241 199.575 85.0656C198.06 83.9538 196.429 83.009 194.712 82.2476C191.916 81.1113 189.008 80.2773 186.036 79.7599C185.737 79.7705 185.44 79.812 185.15 79.8837C185.892 80.8541 186.459 81.6799 187.118 82.4231C188.591 84.0644 188.612 84.0437 188.633 84.7766C187.036 84.4876 185.315 82.805 183.058 79.2747L176.876 77.8812C176.638 77.8778 176.4 77.8951 176.165 77.9328ZM152.715 84.4876C153.322 84.4256 153.745 84.3947 154.25 84.3224C154.712 84.2414 155.17 84.1346 155.62 84.0024C157.424 83.5353 158.978 82.3867 159.956 80.7972C160.934 79.2077 161.259 77.3007 160.865 75.476C160.432 73.4115 160.123 71.347 159.752 69.3445C159.69 69.0142 159.577 68.6942 159.505 68.3122C159.448 67.9813 159.32 67.6668 159.129 67.3905C158.939 67.1142 158.691 66.8828 158.402 66.7122C157.155 65.9381 155.929 65.1226 154.631 64.431C153.979 64.1269 153.284 63.925 152.57 63.8323C150.479 63.631 148.387 64.2119 146.697 65.4632C144.723 66.6583 143.23 68.5087 142.477 70.6926C141.724 72.8766 141.759 75.2559 142.576 77.4167C142.717 78.1398 143.1 78.7931 143.662 79.2681C144.224 79.7431 144.932 80.0113 145.667 80.0283C146.879 80.1254 148.057 80.4793 149.123 81.0665C150.189 81.6537 151.118 82.4609 151.849 83.4347C152.096 83.7753 152.364 84.0644 152.715 84.4876ZM136.919 47.533C136.353 47.7395 135.889 47.884 135.394 48.1008C134.426 48.4981 133.592 49.1674 132.995 50.0282C132.397 50.8889 132.06 51.9044 132.025 52.9524C131.931 53.9507 131.893 54.9536 131.912 55.9562C131.981 57.9102 132.537 59.8158 133.529 61.4994C133.932 62.2764 134.537 62.9293 135.281 63.3884C138.372 65.071 141.37 65.2877 144.389 63.3884C145.834 62.418 147.424 61.6829 149.098 61.2104L150.427 60.8491C151.177 58.7195 151.092 56.3844 150.19 54.3149C149.331 52.1995 147.905 50.3633 146.069 49.0092C144.116 47.5546 141.705 46.8545 139.279 47.0376C139.196 47.0376 139.114 47.2027 138.98 47.3576C139.248 47.6982 139.526 48.0285 139.804 48.3898L140.464 48.1421C140.711 48.0389 140.948 47.9047 141.206 47.8221C141.937 47.6053 142.236 47.8221 142.607 48.5343C142.69 48.7523 142.756 48.9767 142.803 49.2053C143.293 49.2829 143.778 49.3898 144.255 49.5253C144.362 49.5758 144.456 49.6499 144.53 49.7419C144.604 49.8339 144.657 49.9415 144.683 50.0566C144.71 50.1718 144.71 50.2915 144.685 50.4068C144.659 50.5222 144.607 50.6302 144.534 50.7227C144.263 51.0182 143.942 51.2629 143.586 51.4453C142.986 51.6961 142.374 51.9166 141.752 52.1059C141.646 52.5849 141.512 53.0571 141.35 53.5201C141.283 53.6748 141.185 53.8137 141.061 53.9281C140.938 54.0424 140.792 54.1296 140.633 54.1841C140.474 54.2385 140.305 54.259 140.137 54.2442C139.97 54.2294 139.807 54.1796 139.66 54.0982C139.273 53.8486 138.926 53.5424 138.63 53.1898C138.321 52.8388 138.176 52.3433 137.836 52.0543C137.461 51.8202 137.056 51.6395 136.631 51.5175C136.785 51.0943 137.012 50.7743 136.971 50.4853C136.93 50.1963 136.559 49.6182 136.548 49.1743C136.6 48.6067 136.725 48.0482 136.919 47.5124V47.533ZM198.926 83.7444C198.775 83.4949 198.606 83.2569 198.421 83.0321C194.987 79.9359 191.952 76.4233 189.385 72.5754C188.629 71.4566 187.633 70.5219 186.469 69.84C183.659 68.1018 180.485 67.0416 177.196 66.7432C175.264 66.5203 173.307 66.7464 171.477 67.4039C169.654 68.0645 167.84 68.7664 166.027 69.4683C165.862 69.5303 165.749 69.7058 165.512 69.9122C167.142 71.3836 169 72.5794 171.014 73.4528C173.97 71.978 177.212 71.1645 180.513 71.0683C181.244 71.0748 181.973 71.1543 182.688 71.3058C182.904 71.3058 183.234 71.4296 183.192 71.7909C183.192 71.8632 183.192 71.9664 183.12 71.9767C182.676 72.0901 182.226 72.1729 181.77 72.2245C179.095 72.3888 176.468 73.0103 174.002 74.0619C173.703 74.1857 173.363 74.3096 173.476 74.8567C176.64 76.5475 180.025 77.7845 183.532 78.5315C187.226 79.169 190.84 80.2074 194.31 81.6283C195.742 82.2682 197.215 82.9495 198.926 83.7237V83.7444ZM117.435 59.7136C118.187 59.1768 118.981 58.5781 119.805 58.0104C120.901 57.2252 122.182 56.7383 123.522 56.5971C124.862 56.456 126.215 56.6655 127.45 57.2052L129.016 57.8143C128.924 56.2569 128.924 54.6955 129.016 53.1382C129.269 51.5914 129.614 50.061 130.047 48.555C128.934 47.5355 127.73 46.6199 126.451 45.8195C125.092 44.9507 123.57 44.3678 121.979 44.106C120.075 43.7436 118.105 44.0034 116.36 44.8471C114.614 45.6908 113.185 47.0738 112.284 48.7924C112.006 49.3295 111.818 49.9083 111.727 50.5059C111.463 52.5848 111.86 54.694 112.861 56.5343C113.736 58.2065 115.292 58.9497 116.982 59.631C117.131 59.6684 117.283 59.696 117.435 59.7136ZM153.58 61.2826C157.351 62.48 160.03 65.2877 162.853 68.1161C163.929 66.7698 165.188 65.5814 166.593 64.5858C166.799 64.4103 166.995 64.2348 167.212 64.0697C168.227 63.2725 168.951 62.1623 169.272 60.911C169.785 59.2298 169.829 57.4404 169.4 55.7358C168.972 54.0313 168.087 52.4763 166.841 51.2388C166.189 50.5102 165.384 49.9344 164.485 49.5526C163.586 49.1708 162.613 48.9923 161.637 49.0298C160.161 49.0839 158.711 49.4418 157.378 50.081C156.045 50.7203 154.857 51.6274 153.889 52.7459C154.144 54.1612 154.299 55.5927 154.353 57.0297C154.193 58.4472 153.931 59.8513 153.57 61.231L153.58 61.2826ZM133.055 26.8158C132.499 28.1665 132.238 29.6213 132.291 31.0817C132.345 32.5421 132.711 33.9739 133.365 35.2802L138.29 36.6738C139.062 36.8906 139.856 37.0557 140.608 37.3138C140.719 37.3655 140.815 37.4448 140.887 37.5441C140.96 37.6435 141.005 37.7596 141.02 37.8815C141.02 38.0776 140.701 38.3873 140.525 38.3873C139.793 38.4027 139.06 38.3717 138.331 38.2944C137.733 38.2944 137.136 38.0983 136.538 38.0467C135.933 37.8676 135.298 37.8184 134.673 37.9022C134.849 38.2253 135.052 38.5327 135.281 38.8209C136.723 40.1972 138.18 41.5735 139.65 42.9499C139.838 43.1399 140.078 43.2693 140.34 43.3215C141.504 43.497 142.689 43.6311 143.843 43.7757C143.915 43.5899 144.029 43.4557 144.008 43.3524C143.39 40.3279 142.823 37.3035 142.133 34.2996C140.422 26.8777 137.507 19.8481 134.415 12.9527C134.302 12.7049 134.271 12.2817 133.756 12.385C133.756 14.4495 133.942 16.4107 133.869 18.4133C133.797 20.4159 133.54 22.5423 133.354 24.6894C134.488 25.5668 135.662 26.4442 136.806 27.3629C137.95 28.2816 139.402 28.7255 140.361 30.1809C139.897 30.2532 139.567 30.408 139.33 30.3254C138.577 30.0387 137.846 29.6936 137.146 29.2932C135.755 28.5293 134.415 27.7139 133.055 26.8158ZM50.9054 140.528C50.7303 140.962 50.9879 141.137 51.1836 141.282C53.4434 143.068 55.8892 144.605 58.4785 145.865C60.1786 146.639 61.889 147.413 63.6303 148.157C65.3866 148.996 67.2098 149.686 69.0809 150.221C75.0505 151.723 81.0928 152.919 87.1841 153.803C88.6472 154.02 90.1 154.247 91.5631 154.402C92.3621 154.536 93.1828 154.425 93.918 154.084C94.6532 153.743 95.2688 153.189 95.6845 152.492C95.6164 152.223 95.4689 151.98 95.2612 151.796C95.0535 151.612 94.7954 151.495 94.5203 151.46C93.6032 151.253 92.6965 151.026 91.7692 150.861C88.0794 150.192 84.4606 149.176 80.9608 147.826C80.2808 147.568 79.5492 147.413 78.7765 147.197C77.6081 147.969 76.1834 148.251 74.8096 147.981C74.2753 147.93 73.7473 147.826 73.2332 147.672C71.4198 147.186 69.596 146.743 67.8135 146.154C62.9193 144.544 58.0458 142.861 53.1619 141.22C52.4454 140.886 51.686 140.653 50.9054 140.528ZM129.521 75.7754C130.432 75.2494 131.194 74.4994 131.735 73.5962C132.276 72.6931 132.578 71.6668 132.612 70.6141C132.731 69.682 132.731 68.7386 132.612 67.8064C131.582 62.6452 130.613 61.6129 125.853 60.2917C125.516 60.2066 125.171 60.1547 124.823 60.1368C124.086 60.0646 123.344 60.2005 122.68 60.5291C120.575 61.5727 118.77 63.1357 117.435 65.071C116.891 65.8409 116.619 66.771 116.663 67.7135C116.756 69.6617 117.348 71.553 118.383 73.2051C118.502 73.4464 118.696 73.6423 118.936 73.7634C119.176 73.8844 119.448 73.924 119.712 73.8761L121.701 73.6386C123.974 73.3667 126.272 73.8606 128.233 75.0425C128.646 75.3212 129.058 75.5276 129.521 75.7754ZM137.321 13.9643C137.372 14.2496 137.437 14.5321 137.517 14.8107C139.052 18.5991 140.608 22.3565 142.133 26.1655C143.969 30.7082 145.265 35.4512 145.997 40.297C146.162 41.5563 146.234 42.826 146.398 44.0957C146.504 44.4239 146.653 44.7365 146.842 45.0247C147.114 44.7518 147.366 44.4585 147.594 44.1473C148.418 42.8466 149.222 41.5322 150.005 40.2041C151.457 37.6741 152.047 34.7387 151.684 31.8429C151.635 30.5985 151.262 29.3886 150.602 28.3332C150.314 28.6738 150.087 28.9009 149.902 29.1693C149.294 30.0467 148.737 30.9654 148.099 31.8325C147.759 32.2279 147.367 32.5752 146.934 32.8648C146.85 32.9074 146.756 32.9297 146.661 32.9297C146.566 32.9297 146.473 32.9074 146.388 32.8648C146.313 32.8027 146.251 32.7257 146.207 32.6387C146.163 32.5517 146.137 32.4565 146.131 32.359C146.135 32.0937 146.198 31.8327 146.316 31.5951C146.687 30.8829 147.12 30.2016 147.48 29.479C148.209 28.2963 148.82 27.0447 149.304 25.7423C146.368 20.8804 141.875 17.7114 137.321 13.9643ZM135.796 66.2993C135.796 67.4864 135.91 68.5497 135.848 69.6025C135.823 70.6039 135.678 71.5986 135.415 72.5651C135.102 73.5853 134.652 74.5578 134.075 75.4554C133.481 76.3032 132.83 77.1102 132.128 77.8709C133.12 78.929 134.39 79.6844 135.792 80.0497C137.194 80.4151 138.671 80.3754 140.052 79.9354C140.026 79.743 139.985 79.5531 139.928 79.3676C139.148 77.5461 138.77 75.577 138.822 73.5955C138.873 71.6141 139.353 69.6673 140.227 67.889C140.34 67.6019 140.426 67.3047 140.484 67.0013L135.796 66.2993ZM141.206 48.8853C140.707 49.1531 140.167 49.3346 139.608 49.4221C139.217 49.4221 138.846 48.9679 138.454 48.7201C138.403 48.7201 138.331 48.6066 138.29 48.6169C138.049 48.6651 137.818 48.756 137.61 48.8853C137.585 48.9688 137.58 49.0567 137.594 49.1425C137.609 49.2283 137.642 49.3097 137.692 49.3808C138.156 49.6473 138.548 50.0238 138.834 50.4773C139.12 50.9307 139.29 51.4474 139.33 51.982C139.335 52.0498 139.36 52.1145 139.402 52.1678L140.227 52.8491C140.303 52.3481 140.5 51.8733 140.802 51.4666C141.104 51.0598 141.501 50.7335 141.958 50.5163L141.206 48.8853Z" fill="black" fill-opacity="0.05"/>
<path d="M102.206 77.5714C103.979 79.2333 106.245 79.4398 108.213 80.7817C107.781 80.8952 107.616 80.9985 107.482 80.9572C105.988 80.5959 104.494 80.1933 103 79.8217C101.684 79.5087 100.501 78.7859 99.6203 77.7572L99.3421 77.4578C98.0895 75.9504 96.4246 74.8426 94.552 74.2704C92.6794 73.6982 90.6807 73.6867 88.8016 74.2372C87.1666 74.6144 85.472 74.6543 83.8211 74.3544C82.1702 74.0544 80.5975 73.421 79.1987 72.4927C78.7466 72.2287 78.351 71.8779 78.0344 71.4605C77.9686 71.3163 77.9346 71.1596 77.9346 71.0011C77.9346 70.8426 77.9686 70.6859 78.0344 70.5418C78.1128 70.4391 78.2143 70.3565 78.3308 70.3009C78.4472 70.2452 78.5752 70.2181 78.7042 70.2218C79.2261 70.3181 79.7395 70.4562 80.2394 70.6347C81.0637 70.9134 81.8673 71.254 82.7122 71.4914C83.5571 71.7289 84.1341 71.7495 85.0923 71.9147C84.9616 71.5 84.8068 71.0932 84.6287 70.6966C83.9468 69.4562 83.559 68.0752 83.4953 66.6605C83.3699 64.8236 83.8832 62.9999 84.9481 61.4993C85.2572 61.0657 85.6007 60.6425 85.9784 60.2296C89.8732 55.6567 94.8086 55.8838 98.6827 57.8554C101.478 59.2139 103.764 61.4356 105.205 64.1934C105.367 64.5517 105.628 64.8561 105.957 65.0708C106.291 65.2544 106.57 65.5247 106.764 65.8535C106.958 66.1823 107.06 66.5573 107.059 66.9392C107.242 68.308 107.335 69.6873 107.338 71.0682C107.266 72.3574 106.714 73.5728 105.792 74.4746C105.061 75.2592 104.226 75.9301 103.422 76.6424C103.082 76.952 102.701 77.1998 102.206 77.5714ZM100.661 75.7443C101.444 75.1972 102.124 74.7843 102.722 74.2785C103.341 73.7566 103.845 73.1103 104.2 72.3813C104.555 71.6523 104.753 70.8569 104.782 70.0463C104.845 69.6507 104.791 69.2454 104.628 68.8798C103.309 66.8153 102.093 64.596 99.9603 63.1818C99.8573 63.1096 99.7027 63.1818 99.5688 63.1199C99.167 63.5431 98.9506 63.987 99.4142 64.5238C99.5544 64.6633 99.6725 64.8234 99.7646 64.9986C99.8961 65.1956 99.9664 65.4273 99.9664 65.6644C99.9664 65.9014 99.8961 66.1332 99.7646 66.3302C99.6298 66.5257 99.4357 66.6724 99.2112 66.7487C98.9866 66.8249 98.7434 66.8266 98.5178 66.7534C97.9408 66.6192 97.3741 66.4437 96.7559 66.2683C96.49 66.5755 96.208 66.8684 95.911 67.1457C95.7112 67.3763 95.4538 67.5497 95.1652 67.6479C94.8766 67.7462 94.5671 67.7659 94.2684 67.705C93.9696 67.6441 93.6924 67.5048 93.4651 67.3013C93.2378 67.0978 93.0685 66.8375 92.9745 66.547C92.8303 66.2476 92.8303 65.8244 92.6036 65.6386C91.2126 64.4928 91.6248 63.1612 92.0987 61.7883C92.2224 61.4476 92.6551 61.1689 92.2842 60.6219C91.1259 60.7989 90.0375 61.2881 89.1355 62.0373C88.2334 62.7864 87.5517 63.7672 87.1634 64.8747C86.3082 67.3005 87.287 69.4373 88.8531 71.2437C93.397 71.1921 97.4051 72.1005 100.661 75.7443ZM98.1984 62.0257C97.2299 62.2735 96.4777 62.5212 95.6947 62.6554C94.9116 62.7896 94.2728 62.0876 93.634 61.6231C93.1024 62.3257 92.8525 63.2021 92.9333 64.0799C93.7782 64.8025 93.7782 64.8025 94.4479 66.4437C94.8447 66.229 95.2176 65.973 95.5607 65.6799C95.8012 65.3955 96.1305 65.201 96.4953 65.1279C96.8601 65.0548 97.2388 65.1075 97.5699 65.2773C97.761 65.3343 97.9581 65.3689 98.1572 65.3805C97.8584 64.1831 97.8584 64.1831 98.1984 62.0257ZM95.2207 60.8902C95.4474 61.3547 95.7153 61.6128 96.148 61.1586L95.2207 60.8902Z" fill="black" fill-opacity="0.05"/>
<path d="M54.7279 84.4259C54.4024 84.4961 54.0657 84.4956 53.7404 84.4243C53.4152 84.3531 53.1089 84.2128 52.8424 84.013C46.8698 80.9809 41.0765 77.6067 35.4913 73.9072C33.0596 72.2556 30.5662 70.666 28.1655 68.9731C24.624 66.402 21.638 63.1401 19.3869 59.3835C17.9588 57.0219 16.9839 54.4137 16.5122 51.6932C16.1154 49.7018 16.4833 47.6337 17.5425 45.9023C18.9199 43.585 20.8447 41.6424 23.1476 40.2456C26.4674 38.2073 30.0721 36.6765 33.8427 35.7037C39.5558 34.2205 45.4842 33.7523 51.3587 34.3205C57.2317 34.7643 63.115 35.1876 68.9468 36.0443C76.6526 37.0756 84.2806 38.624 91.7794 40.6791C93.1292 41.0714 94.4274 41.6185 95.7566 42.0623C96.3232 42.2585 96.9209 42.372 97.5082 42.5165C100.424 43.2598 103.35 43.9926 106.266 44.7565C107.01 44.8302 107.702 45.1712 108.214 45.7165C108.334 45.9337 108.364 46.1898 108.296 46.4288C108.244 46.514 108.172 46.5844 108.085 46.6332C107.999 46.6821 107.901 46.7076 107.801 46.7075C107.334 46.6745 106.872 46.595 106.421 46.47C102.107 45.2313 97.7932 43.9823 93.4795 42.723C93.0927 42.6566 92.7342 42.477 92.4491 42.2069C92.1647 41.8848 91.8181 41.6236 91.4304 41.4391C91.0426 41.2546 90.6216 41.1506 90.1927 41.1333C83.6293 39.7604 77.0557 38.5114 70.4305 37.4688C63.8053 36.4263 57.0359 35.683 50.2768 35.2495C44.7825 34.8576 39.2624 35.4519 33.9766 37.0043C31.1268 37.8298 28.3657 38.9362 25.7338 40.3075C23.0034 41.6304 20.695 43.6893 19.0674 46.2533C18.5355 47.0712 18.1745 47.9887 18.0063 48.9503C17.838 49.9119 17.866 50.8976 18.0886 51.8481C18.9257 55.4577 20.5476 58.8378 22.8385 61.7473C25.5723 65.0665 28.8726 67.873 32.5857 70.0363C38.6647 73.8247 44.8572 77.4375 51.0496 81.0504C52.2551 81.7523 53.4091 82.5678 54.5631 83.373C54.6569 83.4189 54.7382 83.4868 54.8002 83.571C54.8622 83.6552 54.903 83.7531 54.9192 83.8564C54.9354 83.9597 54.9264 84.0655 54.8932 84.1646C54.8599 84.2637 54.8032 84.3533 54.7279 84.4259Z" fill="black" fill-opacity="0.05"/>
<path d="M72.9756 91.4966C73.4 91.5438 73.8202 91.6232 74.2326 91.734C79.3123 93.3133 84.464 94.5107 89.6158 95.6565C91.3159 96.0282 93.0365 96.2965 94.7675 96.6269L102.866 98.1443C106.091 98.7533 109.316 99.383 112.541 99.9507C115.632 100.487 118.62 100.983 121.66 101.468C123.978 101.829 126.296 102.191 128.615 102.5C132.87 103.047 137.115 103.533 141.37 104.049C144.236 104.364 147.128 104.364 149.994 104.049C151.921 103.832 153.869 103.77 155.795 103.533C158.248 103.213 160.7 102.851 163.121 102.366C164.295 102.097 165.433 101.688 166.511 101.148C167.678 100.613 168.645 99.7203 169.272 98.5985C169.447 98.2276 169.669 97.8807 169.932 97.5662C170.023 97.481 170.133 97.4181 170.253 97.3823C170.373 97.3465 170.499 97.3388 170.622 97.3598C170.727 97.4306 170.814 97.5257 170.875 97.6371C170.936 97.7484 170.969 97.8728 170.972 97.9997C170.952 98.64 170.801 99.2694 170.53 99.8497C170.259 100.43 169.873 100.949 169.396 101.375C167.811 102.819 165.886 103.834 163.801 104.327C162.688 104.586 161.576 104.833 160.452 104.998C154.27 105.927 147.996 106.887 141.669 106.351C138.207 106.051 134.735 105.68 131.294 105.205C126.719 104.565 122.134 103.935 117.61 103.037C112.15 102.005 106.761 100.601 101.331 99.383C98.0028 98.6294 94.6645 97.8862 91.3262 97.174C86.1744 96.0798 81.1772 94.6759 76.18 93.1275C75.0014 92.8366 73.9051 92.2787 72.9756 91.4966Z" fill="black" fill-opacity="0.05"/>
<path d="M76.2212 86.5521C73.424 85.7184 70.878 84.2 68.813 82.1341C68.6378 81.9379 68.4317 81.7625 68.2566 81.5663C67.969 81.2355 67.5938 80.9931 67.1744 80.867C66.755 80.741 66.3086 80.7365 65.8868 80.8541C65.2995 80.9779 64.7328 81.1741 64.1558 81.3289C63.8391 81.429 63.5153 81.5049 63.1872 81.556C63.0311 81.581 62.8712 81.5655 62.7226 81.5111C62.5741 81.4567 62.442 81.3652 62.3387 81.2452C62.2355 81.1252 62.1646 80.9808 62.1327 80.8256C62.1009 80.6704 62.1092 80.5096 62.1569 80.3586C62.277 79.9098 62.5072 79.4981 62.8266 79.1612C63.5398 78.4996 64.4037 78.023 65.343 77.7729C66.2823 77.5228 67.2685 77.5068 68.2154 77.7264C68.8466 77.9412 69.4333 78.2701 69.9464 78.6967C70.2613 78.9468 70.5481 79.2306 70.8015 79.5431C71.9644 80.8334 73.3327 81.9217 74.8508 82.7637C75.7163 83.2695 76.5406 83.796 77.3752 84.3947C77.6548 84.5733 77.92 84.7735 78.1686 84.9934C78.3674 85.1222 78.5159 85.3156 78.5891 85.5412C78.6623 85.7668 78.6557 86.0108 78.5704 86.2321C78.4704 86.4458 78.3003 86.6188 78.0884 86.7221C77.8765 86.8254 77.6357 86.8528 77.4061 86.7998C76.9734 86.7276 76.52 86.5521 76.2212 86.5521Z" fill="black" fill-opacity="0.05"/>
<path d="M102.351 89.401C102.159 89.1086 102.013 88.7883 101.918 88.4514C101.918 88.3378 102.289 88.1211 102.516 88.0901C102.598 88.0875 102.679 88.1055 102.753 88.1425C102.827 88.1795 102.89 88.2344 102.937 88.302C102.984 88.3697 103.013 88.448 103.023 88.53C103.032 88.612 103.02 88.6949 102.99 88.7714C102.897 88.9778 102.66 89.112 102.351 89.401Z" fill="black" fill-opacity="0.05"/>
<path d="M116.457 51.6829C116.289 52.2611 116.089 52.8297 115.859 53.3861C115.764 53.5183 115.638 53.6259 115.493 53.7001C115.348 53.7743 115.187 53.813 115.024 53.813C114.862 53.813 114.701 53.7743 114.556 53.7001C114.411 53.6259 114.285 53.5183 114.19 53.3861C114.068 53.2238 113.993 53.0309 113.974 52.8287C114.002 52.3709 113.931 51.9125 113.765 51.4849C113.6 51.0573 113.344 50.6705 113.015 50.3513C112.851 50.1579 112.743 49.9224 112.704 49.6712C112.665 49.42 112.696 49.1629 112.794 48.9285C112.893 48.6942 113.054 48.4917 113.26 48.3438C113.467 48.1958 113.71 48.1082 113.963 48.0906C114.152 48.0273 114.352 48.0027 114.551 48.0184C114.833 48.1154 115.137 48.128 115.426 48.0547C115.715 47.9814 115.976 47.8253 116.178 47.6055C116.385 47.4383 116.636 47.3343 116.9 47.3061C117.041 47.2751 117.189 47.2803 117.328 47.3211C117.467 47.362 117.594 47.4373 117.697 47.5401C117.799 47.6429 117.874 47.7699 117.915 47.9094C117.956 48.0488 117.961 48.1964 117.93 48.3384C117.791 48.6339 117.731 48.9607 117.756 49.2866C117.781 49.6124 117.891 49.9261 118.074 50.1964C118.507 50.8467 118.229 51.3216 117.466 51.5177C117.133 51.593 116.796 51.6481 116.457 51.6829ZM113.953 49.4842L115.488 50.9293L116.972 50.3616C116.972 49.639 116.889 48.9681 116.859 48.2971C116.086 48.4106 116.415 49.4326 115.705 49.5564C115.2 49.2777 114.767 48.5242 113.953 49.4842Z" fill="black" fill-opacity="0.05"/>
<path d="M121.701 70.8204C121.134 70.8204 120.671 70.8204 120.217 70.7378C120.117 70.7289 120.019 70.6982 119.931 70.6479C119.844 70.5977 119.768 70.529 119.709 70.4467C119.65 70.3643 119.61 70.2702 119.591 70.1708C119.572 70.0714 119.575 69.969 119.599 69.8707C120.073 68.5598 120.567 67.2591 121.124 65.9792C121.299 65.5766 122.041 65.5663 122.34 65.9792C122.639 66.3921 123.04 66.9391 123.37 67.4346C124.102 67.0321 124.483 66.0101 125.688 66.2992C125.758 66.5782 125.813 66.8608 125.853 67.1456C125.873 67.4584 125.873 67.7722 125.853 68.0849C126.399 68.4772 126.884 68.7766 127.368 69.1172C127.484 69.2163 127.572 69.3432 127.625 69.486C127.679 69.6289 127.695 69.783 127.672 69.9338C127.649 70.0845 127.589 70.227 127.496 70.3478C127.403 70.4686 127.281 70.5638 127.141 70.6243C126.901 70.7374 126.653 70.834 126.399 70.9133C126.224 70.9856 126.049 71.0785 125.843 71.1817C125.704 71.5344 125.546 71.879 125.369 72.214C125.265 72.4432 125.104 72.6418 124.901 72.7906C124.699 72.9394 124.461 73.0334 124.211 73.0635C123.962 73.0936 123.709 73.0587 123.477 72.9624C123.244 72.866 123.041 72.7114 122.886 72.5133C122.454 71.9759 122.058 71.4104 121.701 70.8204ZM124.071 71.7907C124.285 71.3992 124.526 71.0232 124.792 70.6656C125.111 70.2733 125.482 69.9224 125.905 69.4888C125.544 69.1998 125.266 68.7972 124.936 68.7559C124.083 68.5041 123.261 68.1578 122.484 67.7237C122.282 67.6962 122.078 67.6962 121.876 67.7237C121.618 68.2398 121.371 68.7559 121.124 69.2617C121.472 69.4452 121.859 69.5411 122.252 69.5411C122.645 69.5411 123.032 69.4452 123.38 69.2617C123.501 69.2413 123.625 69.2503 123.742 69.288C123.858 69.3258 123.964 69.3911 124.05 69.4785C124.163 69.6436 124.05 69.9533 124.05 70.1907C124.05 70.4282 123.865 70.3662 123.772 70.4488C123.205 71.0682 123.205 71.0681 124.071 71.7907Z" fill="black" fill-opacity="0.05"/>
<path d="M140.402 50.4234L140.299 50.5679L140.144 50.3408C140.196 50.3408 140.257 50.2685 140.309 50.2788C140.36 50.2892 140.371 50.3305 140.402 50.4234Z" fill="black" fill-opacity="0.05"/>
<path d="M94.9634 64.3173L95.2622 64.0283C95.375 64.1279 95.4691 64.2467 95.5404 64.3793C95.5404 64.3793 95.3652 64.6167 95.3446 64.6064C95.2068 64.5252 95.0788 64.4282 94.9634 64.3173Z" fill="black" fill-opacity="0.05"/>
</svg>
