<svg width="20" height="19" viewBox="0 0 20 19" fill="none" xmlns="http://www.w3.org/2000/svg">
<path d="M10 18.7334C14.9658 18.7334 19.0791 14.6289 19.0791 9.6543C19.0791 4.68848 14.9658 0.575195 9.99121 0.575195C5.02539 0.575195 0.920898 4.68848 0.920898 9.6543C0.920898 14.6289 5.03418 18.7334 10 18.7334ZM10 16.9492C5.95703 16.9492 2.71387 13.6973 2.71387 9.6543C2.71387 5.61133 5.94824 2.36816 9.99121 2.36816C14.0342 2.36816 17.2861 5.61133 17.2949 9.6543C17.2949 13.6973 14.043 16.9492 10 16.9492ZM9.94727 6.66602C10.6152 6.66602 11.1426 6.12988 11.1426 5.4707C11.1426 4.79395 10.6152 4.25781 9.94727 4.25781C9.28809 4.25781 8.75195 4.79395 8.75195 5.4707C8.75195 6.12988 9.28809 6.66602 9.94727 6.66602ZM8.44434 14.4355H12.0127C12.4082 14.4355 12.7158 14.1543 12.7158 13.7588C12.7158 13.3809 12.4082 13.082 12.0127 13.082H11.0283V8.90723C11.0283 8.37988 10.7646 8.03711 10.2725 8.03711H8.60254C8.21582 8.03711 7.89941 8.33594 7.89941 8.71387C7.89941 9.10938 8.21582 9.39062 8.60254 9.39062H9.49902V13.082H8.44434C8.05762 13.082 7.75 13.3809 7.75 13.7588C7.75 14.1543 8.05762 14.4355 8.44434 14.4355Z" fill="#FF7728"/>
</svg>
