<svg width="18" height="18" viewBox="0 0 18 18" fill="none" xmlns="http://www.w3.org/2000/svg">
<path d="M9.00021 17.7941C9.4993 17.7941 9.90423 17.3986 9.90423 16.8995V8.6409C10.7988 8.28306 11.4392 7.39788 11.4392 6.38086C11.4392 5.36384 10.7988 4.47866 9.90423 4.12082V1.51235C9.90423 1.0415 9.4993 0.645996 9.00021 0.645996C8.51053 0.645996 8.09619 1.0415 8.09619 1.51235V4.12082C7.20159 4.47866 6.56124 5.35442 6.56124 6.38086C6.56124 7.39788 7.20159 8.28306 8.09619 8.6409V16.8995C8.09619 17.3986 8.50112 17.7941 9.00021 17.7941ZM13.0777 11.9556C13.0777 12.9727 13.7086 13.8484 14.6032 14.2157V16.9277C14.6032 17.3986 15.0082 17.7941 15.5073 17.7941C16.0158 17.7941 16.4113 17.3986 16.4113 16.9277V14.2157C17.3153 13.8578 17.9462 12.9727 17.9462 11.9556C17.9462 10.9292 17.3153 10.0534 16.4113 9.68618V1.5406C16.4113 1.0415 16.0063 0.645996 15.5073 0.645996C15.0176 0.645996 14.6032 1.0415 14.6032 1.5406V9.69559C13.7086 10.0534 13.0777 10.9292 13.0777 11.9556ZM2.49316 17.7941C2.99226 17.7941 3.39718 17.3986 3.39718 16.9277V14.2157C4.29178 13.8484 4.92271 12.9727 4.92271 11.9556C4.92271 10.9292 4.29178 10.0534 3.39718 9.69559V1.5406C3.39718 1.0415 2.99226 0.645996 2.49316 0.645996C2.00349 0.645996 1.58915 1.0415 1.58915 1.5406V9.68618C0.694545 10.0534 0.0541992 10.9292 0.0541992 11.9556C0.0541992 12.9727 0.694545 13.8578 1.58915 14.2157V16.9277C1.58915 17.3986 1.99407 17.7941 2.49316 17.7941ZM7.84194 6.38086C7.84194 5.7311 8.35045 5.22259 9.00021 5.22259C9.65939 5.22259 10.1585 5.7311 10.1585 6.38086C10.1585 7.04004 9.65939 7.53913 9.00021 7.53913C8.35045 7.53913 7.84194 7.04004 7.84194 6.38086ZM14.349 11.9556C14.349 11.3059 14.8669 10.7879 15.5167 10.7879C16.1759 10.7879 16.6749 11.3059 16.6749 11.9556C16.6749 12.6148 16.1759 13.1139 15.5167 13.1139C14.8669 13.1139 14.349 12.6148 14.349 11.9556ZM1.33489 11.9556C1.33489 11.3059 1.8434 10.7879 2.49316 10.7879C3.15234 10.7879 3.65144 11.3059 3.65144 11.9556C3.65144 12.6148 3.15234 13.1139 2.49316 13.1139C1.8434 13.1139 1.33489 12.6148 1.33489 11.9556Z" fill="#FF7728"/>
</svg>
