<svg width="18" height="17" viewBox="0 0 18 17" fill="none" xmlns="http://www.w3.org/2000/svg">
<path d="M3.77947 16.0866C4.13355 16.3578 4.57049 16.2674 5.08277 15.8982L9.00018 13.0204L12.9176 15.8982C13.4299 16.2674 13.8743 16.3578 14.2284 16.0866C14.575 15.8229 14.6503 15.386 14.4469 14.7908L12.9025 10.1878L16.8576 7.34773C17.3623 6.98612 17.5808 6.58684 17.4377 6.16497C17.2945 5.75063 16.8953 5.54722 16.27 5.55476L11.4184 5.58489L9.94186 0.959333C9.75353 0.356655 9.44465 0.0327148 9.00018 0.0327148C8.56324 0.0327148 8.25436 0.356655 8.05849 0.959333L6.58193 5.58489L1.73037 5.55476C1.10509 5.54722 0.713347 5.75063 0.57021 6.16497C0.427074 6.58684 0.638012 6.98612 1.15029 7.34773L5.10537 10.1878L3.55347 14.7908C3.35007 15.386 3.4254 15.8229 3.77947 16.0866Z" fill="#CDCDCD"/>
</svg>
